# xmcd CD database file
#
# Track frame offsets:
#	150
#	12810
#	23947
#	35457
#	45096
#	55509
#	67326
#	78129
#	91620
#	103089
#	115687
#	125625
#
# Disc length: 1838 seconds
#
# Revision: 3
# Processed by: cddbd v1.5.2PL0 Copyright (c) Steve Scherf et al.
# Submitted via: CDex 1.51
#
DISCID=88072c0c
DTITLE=Various Artist - Number One '60s Country Hits
DYEAR=2006
DGENRE=Country
TTITLE0=Patsy Cline feat. The Jordanaires - I Fall to Pieces
TTITLE1=Roger Miller - King of the Road
TTITLE2=Jack Greene - There Goes My Everything
TTITLE3=Loretta Lynn - Don't Come Home Drinkin' (With Lovin' on Your Mind)
TTITLE4=Warner Mack - The Bridge Washed Out
TTITLE5=Kitty Wells - Heartbreak, U.S.A.
TTITLE6=George Jones - Tender Years
TTITLE7=Patsy Cline feat. The Jordanaires - She's Got You
TTITLE8=Conway Twitty - I Love You More Today
TTITLE9=Bill Anderson - Still
TTITLE10=Loretta Lynn - First City
TTITLE11=Bill Anderson and Jan Howard - For Loving You
EXTD=YEAR: 2006
EXTT0=
EXTT1=
EXTT2=
EXTT3=
EXTT4=
EXTT5=
EXTT6=
EXTT7=
EXTT8=
EXTT9=
EXTT10=
EXTT11=
PLAYORDER=
